<?xml version="1.0" encoding="UTF-8"?>
<svg version="1.1" xmlns="http://www.w3.org/2000/svg" width="1024" height="1024">
<path d="M0 0 C337.92 0 675.84 0 1024 0 C1024 337.92 1024 675.84 1024 1024 C686.08 1024 348.16 1024 0 1024 C0 686.08 0 348.16 0 0 Z " fill="#FCFCFC" transform="translate(0,0)"/>
<path d="M0 0 C1.09041092 -0.00571014 2.18082184 -0.01142029 3.30427551 -0.01730347 C4.49598862 -0.01842133 5.68770172 -0.01953918 6.91552734 -0.02069092 C8.17455368 -0.02565582 9.43358002 -0.03062073 10.73075867 -0.03573608 C14.18369623 -0.04884002 17.63661437 -0.05530198 21.08957291 -0.05974674 C23.25123605 -0.06268279 25.41289395 -0.06678876 27.57455444 -0.07125092 C34.35021279 -0.08492516 41.12585908 -0.09459023 47.90153027 -0.09845281 C55.69903657 -0.10292317 63.49636666 -0.12042359 71.29381943 -0.1494534 C77.33480556 -0.17115527 83.37574246 -0.18116172 89.41676712 -0.18249393 C93.01768019 -0.18353658 96.61842762 -0.18932723 100.21929932 -0.20731354 C104.24705463 -0.22703981 108.27444757 -0.22247163 112.30224609 -0.21600342 C113.47776535 -0.2252182 114.65328461 -0.23443298 115.86442566 -0.243927 C127.28283491 -0.18679079 138.61079646 1.64001189 147.62646484 9.14044189 C155.1387372 17.62534235 159.73135107 26.25213887 159.76690674 37.69238281 C159.77261688 38.79691803 159.77832703 39.90145325 159.78421021 41.03945923 C159.78588699 42.84273178 159.78588699 42.84273178 159.78759766 44.68243408 C159.79256256 45.95617889 159.79752747 47.22992371 159.80264282 48.54226685 C159.81572806 52.03006663 159.82220426 55.5178472 159.82665348 59.00566769 C159.82959065 61.18791649 159.83369668 63.37016012 159.83815765 65.55240631 C159.85182276 72.38945768 159.86149408 79.22649713 159.86535954 86.0635612 C159.86983714 93.93862722 159.88737524 101.81351941 159.91636014 109.68853259 C159.93802293 115.78724097 159.94806628 121.88590061 159.94940066 127.98464704 C159.95044546 131.6217781 159.95628353 135.25874554 159.97422028 138.89583588 C159.99386274 142.95762062 159.98939375 147.01904447 159.98291016 151.08087158 C159.99212494 152.27495636 160.00133972 153.46904114 160.01083374 154.6993103 C159.95162316 166.56252012 156.76778437 175.15784572 148.91552734 184.08575439 C139.74451515 193.02458906 128.03873312 194.88961458 115.71728516 194.77154541 C114.38022417 194.77669996 113.04317001 194.78399271 111.70613098 194.79322815 C108.1173056 194.81154864 104.52923485 194.79893146 100.94044209 194.77913785 C97.16371787 194.76260142 93.38703587 194.77158424 89.61029053 194.7766571 C83.27588002 194.78115928 76.94176663 194.76542008 70.60742188 194.73736572 C63.30390978 194.70526666 56.00093152 194.70535704 48.69738126 194.72258049 C41.63921806 194.73848567 34.58124896 194.73169005 27.52309418 194.71464348 C24.53285241 194.70780538 21.54276776 194.70877161 18.55252838 194.71618843 C14.37407648 194.72532674 10.19643882 194.70123012 6.01806641 194.67388916 C4.7897963 194.68041504 3.56152618 194.68694092 2.29603577 194.69366455 C-9.15854815 194.56651607 -17.47859404 190.78173729 -25.93603516 183.01544189 C-35.70487552 172.87918939 -36.67768177 160.00642725 -36.64819336 146.59747314 C-36.65330429 145.38312592 -36.65841522 144.16877869 -36.66368103 142.91763306 C-36.67512752 139.61595862 -36.67766243 136.31444141 -36.67511773 133.01275253 C-36.67404081 130.24452849 -36.67894947 127.47632709 -36.68372315 124.70810795 C-36.6947791 118.17283972 -36.69527734 111.63762899 -36.68920898 105.10235596 C-36.68316677 98.3846563 -36.69549538 91.66716596 -36.71677905 84.94950199 C-36.73444856 79.15724648 -36.74038817 73.36505728 -36.73714131 67.57277584 C-36.73533743 64.12405121 -36.73787466 60.67547607 -36.75185585 57.22677612 C-36.76423811 53.37882491 -36.7574176 49.53135458 -36.74584961 45.68341064 C-36.75349335 44.5568808 -36.76113708 43.43035095 -36.76901245 42.26968384 C-36.69091986 30.47417107 -33.59932651 20.02228438 -25.55712891 11.13262939 C-18.38341728 4.43716521 -9.87227745 0.0310179 0 0 Z " fill="#FBFAFB" transform="translate(146.37353515625,405.85955810546875)"/>
<path d="M0 0 C1.09041092 -0.00571014 2.18082184 -0.01142029 3.30427551 -0.01730347 C4.49598862 -0.01842133 5.68770172 -0.01953918 6.91552734 -0.02069092 C8.17455368 -0.02565582 9.43358002 -0.03062073 10.73075867 -0.03573608 C14.18369623 -0.04884002 17.63661437 -0.05530198 21.08957291 -0.05974674 C23.25123605 -0.06268279 25.41289395 -0.06678876 27.57455444 -0.07125092 C34.35021279 -0.08492516 41.12585908 -0.09459023 47.90153027 -0.09845281 C55.69903657 -0.10292317 63.49636666 -0.12042359 71.29381943 -0.1494534 C77.33480556 -0.17115527 83.37574246 -0.18116172 89.41676712 -0.18249393 C93.01768019 -0.18353658 96.61842762 -0.18932723 100.21929932 -0.20731354 C104.24705463 -0.22703981 108.27444757 -0.22247163 112.30224609 -0.21600342 C113.47776535 -0.2252182 114.65328461 -0.23443298 115.86442566 -0.243927 C127.28283491 -0.18679079 138.61079646 1.64001189 147.62646484 9.14044189 C155.1387372 17.62534235 159.73135107 26.25213887 159.76690674 37.69238281 C159.77261688 38.79691803 159.77832703 39.90145325 159.78421021 41.03945923 C159.78588699 42.84273178 159.78588699 42.84273178 159.78759766 44.68243408 C159.79256256 45.95617889 159.79752747 47.22992371 159.80264282 48.54226685 C159.81572806 52.03006663 159.82220426 55.5178472 159.82665348 59.00566769 C159.82959065 61.18791649 159.83369668 63.37016012 159.83815765 65.55240631 C159.85182276 72.38945768 159.86149408 79.22649713 159.86535954 86.0635612 C159.86983714 93.93862722 159.88737524 101.81351941 159.91636014 109.68853259 C159.93802293 115.78724097 159.94806628 121.88590061 159.94940066 127.98464704 C159.95044546 131.6217781 159.95628353 135.25874554 159.97422028 138.89583588 C159.99386274 142.95762062 159.98939375 147.01904447 159.98291016 151.08087158 C159.99212494 152.27495636 160.00133972 153.46904114 160.01083374 154.6993103 C159.95162316 166.56252012 156.76778437 175.15784572 148.91552734 184.08575439 C139.74451515 193.02458906 128.03873312 194.88961458 115.71728516 194.77154541 C114.38022417 194.77669996 113.04317001 194.78399271 111.70613098 194.79322815 C108.1173056 194.81154864 104.52923485 194.79893146 100.94044209 194.77913785 C97.16371787 194.76260142 93.38703587 194.77158424 89.61029053 194.7766571 C83.27588002 194.78115928 76.94176663 194.76542008 70.60742188 194.73736572 C63.30390978 194.70526666 56.00093152 194.70535704 48.69738126 194.72258049 C41.63921806 194.73848567 34.58124896 194.73169005 27.52309418 194.71464348 C24.53285241 194.70780538 21.54276776 194.70877161 18.55252838 194.71618843 C14.37407648 194.72532674 10.19643882 194.70123012 6.01806641 194.67388916 C4.7897963 194.68041504 3.56152618 194.68694092 2.29603577 194.69366455 C-9.15854815 194.56651607 -17.47859404 190.78173729 -25.93603516 183.01544189 C-35.70487552 172.87918939 -36.67768177 160.00642725 -36.64819336 146.59747314 C-36.65330429 145.38312592 -36.65841522 144.16877869 -36.66368103 142.91763306 C-36.67512752 139.61595862 -36.67766243 136.31444141 -36.67511773 133.01275253 C-36.67404081 130.24452849 -36.67894947 127.47632709 -36.68372315 124.70810795 C-36.6947791 118.17283972 -36.69527734 111.63762899 -36.68920898 105.10235596 C-36.68316677 98.3846563 -36.69549538 91.66716596 -36.71677905 84.94950199 C-36.73444856 79.15724648 -36.74038817 73.36505728 -36.73714131 67.57277584 C-36.73533743 64.12405121 -36.73787466 60.67547607 -36.75185585 57.22677612 C-36.76423811 53.37882491 -36.7574176 49.53135458 -36.74584961 45.68341064 C-36.75349335 44.5568808 -36.76113708 43.43035095 -36.76901245 42.26968384 C-36.69091986 30.47417107 -33.59932651 20.02228438 -25.55712891 11.13262939 C-18.38341728 4.43716521 -9.87227745 0.0310179 0 0 Z M-14.68603516 23.32794189 C-20.3299324 30.809293 -20.8162612 38.77369183 -20.77758789 47.87969971 C-20.78445114 49.02080704 -20.79131439 50.16191437 -20.79838562 51.33760071 C-20.81660567 55.08971799 -20.81282185 58.84141509 -20.80712891 62.59356689 C-20.81169381 65.21757136 -20.8170003 67.84157463 -20.82301331 70.46557617 C-20.83302022 75.95961479 -20.82976806 81.45353554 -20.81958008 86.9475708 C-20.80811914 93.26707462 -20.82214869 99.58615303 -20.84897655 105.90560079 C-20.8739458 112.01972558 -20.87628706 118.13365655 -20.8698597 124.24782562 C-20.86970705 126.83279883 -20.87570426 129.41778045 -20.88815117 132.00272369 C-21.65813387 153.17635022 -21.65813387 153.17635022 -13.62353516 172.20294189 C-6.60972812 178.9951852 0.36883613 179.72630095 9.85058594 179.65802002 C11.65703835 179.66853394 11.65703835 179.66853394 13.49998474 179.67926025 C16.78335619 179.69378897 20.06607629 179.69046733 23.34943724 179.67774391 C26.80007937 179.66755922 30.25068048 179.6770251 33.70132446 179.68328857 C39.49643672 179.69055114 45.29134461 179.68101612 51.08642578 179.66192627 C57.76440641 179.64018054 64.44189803 179.64719738 71.11986673 179.66923189 C76.87389445 179.68745046 82.6277759 179.68991227 88.38182318 179.67947721 C91.80936216 179.67327487 95.2366722 179.67231532 98.66419601 179.68562317 C102.49098051 179.69582933 106.31683881 179.68022765 110.14355469 179.65802002 C111.82403648 179.67016541 111.82403648 179.67016541 113.53846741 179.68255615 C122.87333569 179.5826555 131.23656412 177.43036764 138.17090511 170.87465668 C143.91203462 164.03443469 144.2019782 156.35480646 144.12817383 147.78692627 C144.13357681 146.58087234 144.1389798 145.37481842 144.14454651 144.13221741 C144.15485641 140.848957 144.14739513 137.56636055 144.13083529 134.283144 C144.11689467 130.83204958 144.12345506 127.38098309 144.12696838 123.92987061 C144.12966344 118.13653118 144.11625593 112.34339977 144.09301758 106.55010986 C144.06641215 99.87158317 144.06466332 93.19340405 144.07640594 86.51484251 C144.0872205 80.06539728 144.08096793 73.61607662 144.06685066 67.16664124 C144.06112263 64.43320233 144.06114826 61.69985554 144.06591606 58.96641541 C144.06883644 55.14205193 144.05228035 51.31824993 144.03051758 47.49395752 C144.03501923 46.37161209 144.03952087 45.24926666 144.04415894 44.09291077 C143.96870246 36.08504938 142.86285377 29.62657758 138.50146484 22.82794189 C131.2167863 16.01835109 123.41365605 15.55635788 113.7980957 15.62286377 C112.54166763 15.61585449 111.28523956 15.60884521 109.99073792 15.60162354 C106.56901101 15.58710622 103.14826062 15.59040691 99.72658992 15.60313988 C96.13221301 15.6133274 92.5378754 15.60385854 88.9434967 15.59759521 C82.91057926 15.59033636 76.87785826 15.59986091 70.8449707 15.61895752 C63.88575796 15.64073295 56.92701392 15.63366326 49.96781248 15.6116519 C43.97430904 15.59345917 37.98094611 15.5909581 31.98742396 15.60140657 C28.41576719 15.60761907 24.84433026 15.60853932 21.27268791 15.59526062 C17.29008852 15.58148575 13.30800801 15.60061505 9.32543945 15.62286377 C8.15274506 15.61476685 6.98005066 15.60666992 5.77182007 15.59832764 C-2.20809323 15.68076514 -9.25093523 16.83468092 -14.68603516 23.32794189 Z " fill="#642BD8" transform="translate(146.37353515625,405.85955810546875)"/>
<path d="M0 0 C2.51295329 1.90017497 4.64018517 3.98041407 6.74609375 6.3203125 C7.73609375 7.3721875 7.73609375 7.3721875 8.74609375 8.4453125 C16.96410224 20.25869971 19.04591519 33.2692427 17.74609375 47.3203125 C15.45702605 59.44196643 9.59508152 70.67998477 -0.25390625 78.3203125 C-11.21135521 84.7849257 -21.60167542 86.97238143 -34.25390625 85.3203125 C-38.85804552 83.9894021 -43.83190338 81.74231537 -47.25390625 78.3203125 C-47.58390625 90.5303125 -47.91390625 102.7403125 -48.25390625 115.3203125 C-64.25390625 122.3203125 -64.25390625 122.3203125 -66.25390625 122.3203125 C-66.25390625 80.7403125 -66.25390625 39.1603125 -66.25390625 -3.6796875 C-60.64390625 -3.6796875 -55.03390625 -3.6796875 -49.25390625 -3.6796875 C-48.92390625 -0.3796875 -48.59390625 2.9203125 -48.25390625 6.3203125 C-47.26390625 4.99 -47.26390625 4.99 -46.25390625 3.6328125 C-34.58968208 -10.30494689 -14.1826555 -9.53120108 0 0 Z " fill="#652DD6" transform="translate(905.25390625,478.6796875)"/>
<path d="M0 0 C8.69553426 7.70832741 14.94523167 18.30706281 16.22143555 30.03491211 C17.05241281 45.48683695 14.32308831 58.11633263 4.1875 70.15234375 C-3.13601417 78.08122905 -12.7968831 82.76599749 -23.63671875 83.37109375 C-36.98838269 83.69559055 -47.36442141 81.92132103 -57.90234375 73.06640625 C-67.85873743 63.25833873 -72.98152238 50.93589959 -73.3125 37 C-73.20102168 24.68164539 -68.75803705 12.81880712 -60.3125 3.8125 C-43.43216245 -12.05628174 -18.94074506 -13.46013967 0 0 Z " fill="#632BD4" transform="translate(567,481)"/>
<path d="M0 0 C1.70736328 -0.0309375 1.70736328 -0.0309375 3.44921875 -0.0625 C17.86388861 -0.12869825 28.83249525 4.44190123 39.421875 14.1796875 C42.07701693 16.99413795 43.7075975 19.77020348 45.375 23.25 C43.42153795 24.92268922 41.46270186 26.58821581 39.5 28.25 C38.94441406 28.72695313 38.38882813 29.20390625 37.81640625 29.6953125 C33.6015625 33.25 33.6015625 33.25 31.375 33.25 C30.49335141 32.07645424 29.66990573 30.8589525 28.875 29.625 C24.03001435 22.9438951 16.49688388 18.60364731 8.375 17.25 C-5.03115464 16.17616534 -16.82822482 19.03737101 -27.625 27.25 C-35.6143431 34.3970162 -40.31856928 42.78745978 -42.625 53.25 C-43.52902811 70.635156 -41.45706242 84.70597251 -29.625 98.25 C-27.16338787 100.21114096 -27.16338787 100.21114096 -24.4375 101.875 C-23.55707031 102.44476562 -22.67664063 103.01453125 -21.76953125 103.6015625 C-14.65735121 107.32993514 -8.19027072 108.76678618 -0.1875 108.625 C1.06027222 108.60977295 1.06027222 108.60977295 2.33325195 108.59423828 C12.4392833 108.33909041 19.80587219 106.15178011 27.375 99.25 C32.74922717 93.58527407 34.27940155 87.91918913 35.375 80.25 C22.835 80.25 10.295 80.25 -2.625 80.25 C-2.625 74.97 -2.625 69.69 -2.625 64.25 C15.195 64.25 33.015 64.25 51.375 64.25 C51.375 99.71933086 51.375 99.71933086 38.375 114 C25.72891447 125.91856115 10.54109308 127.85059974 -6.03125 127.5625 C-12.46336726 127.30658022 -17.83498668 126.09188727 -23.625 123.25 C-24.55054688 122.82589844 -25.47609375 122.40179687 -26.4296875 121.96484375 C-33.50152886 118.44851266 -39.04826895 113.79712009 -44.625 108.25 C-45.17800781 107.73179687 -45.73101562 107.21359375 -46.30078125 106.6796875 C-58.20250033 94.42508726 -62.148125 76.54002588 -62.04516602 60.10864258 C-61.58062112 43.53789584 -54.99000355 28.80797554 -43.49609375 16.82421875 C-30.67630268 5.33001152 -17.04305982 0.07566286 0 0 Z " fill="#632BD4" transform="translate(397.625,437.75)"/>
<path d="M0 0 C5.61 0 11.22 0 17 0 C18.86216875 4.34506042 20.46956933 8.19357956 21.79345703 12.64404297 C22.11033478 13.70138641 22.42721252 14.75872986 22.75369263 15.84811401 C23.08505219 16.96815826 23.41641174 18.08820251 23.7578125 19.2421875 C24.1063327 20.40630157 24.45485291 21.57041565 24.81393433 22.76980591 C25.92153854 26.47038101 27.02378161 30.17251999 28.125 33.875 C29.2336961 37.59879885 30.34360778 41.32221279 31.45748901 45.04446411 C32.14951218 47.35723339 32.83849202 49.6709158 33.52420044 51.98556519 C33.83477386 53.02399567 34.14534729 54.06242615 34.46533203 55.13232422 C34.73830109 56.05052948 35.01127014 56.96873474 35.29251099 57.9147644 C35.81622342 59.96369838 35.81622342 59.96369838 37 61 C37.1790387 60.41277161 37.35807739 59.82554321 37.5425415 59.22052002 C39.42282406 53.05448537 41.30528812 46.88911967 43.18896484 40.72412109 C43.88970889 38.42969226 44.5899147 36.13509896 45.28955078 33.84033203 C46.30095862 30.5233183 47.31436375 27.20692012 48.328125 23.890625 C48.63558655 22.88074524 48.9430481 21.87086548 49.25982666 20.8303833 C51.3970416 13.84824057 53.66932487 6.92003543 56 0 C62.27 0 68.54 0 75 0 C75.59687622 1.9190918 75.59687622 1.9190918 76.20581055 3.87695312 C77.70602847 8.70039154 79.2063882 13.52378585 80.70678711 18.34716797 C81.35168155 20.42039844 81.99653938 22.4936403 82.64135742 24.56689453 C86.41930287 36.71385512 90.20112626 48.85956661 94 61 C95.56703771 58.05310446 96.67221754 55.14418379 97.6640625 51.95947266 C97.97778809 50.95808258 98.29151367 49.9566925 98.61474609 48.92495728 C98.94812988 47.848862 99.28151367 46.77276672 99.625 45.6640625 C99.97256348 44.55195404 100.32012695 43.43984558 100.67822266 42.29403687 C101.78868141 38.73868028 102.8944787 35.18189461 104 31.625 C105.10649497 28.07555656 106.21393743 24.52641034 107.32177734 20.97738647 C108.01060065 18.7695473 108.69846569 16.56140887 109.38525391 14.35293579 C109.69897949 13.34524139 110.01270508 12.337547 110.3359375 11.29931641 C110.60970215 10.41869537 110.8834668 9.53807434 111.16552734 8.63076782 C112.08107708 5.7443955 113.04243139 2.87270584 114 0 C119.61 0 125.22 0 131 0 C129.09277852 7.16044554 127.02965461 14.22228014 124.70703125 21.2578125 C124.39957474 22.19676865 124.09211823 23.13572479 123.77534485 24.10313416 C123.12410428 26.09119705 122.47169438 28.07887724 121.81817627 30.06619263 C120.46316937 34.18750405 119.11465751 38.31093048 117.76586914 42.4342804 C117.09964058 44.47090003 116.43313933 46.50743048 115.76635742 48.54386902 C113.20148985 56.37775244 110.6482851 64.21511369 108.125 72.0625 C107.81022705 73.03396973 107.4954541 74.00543945 107.17114258 75.00634766 C106.74998169 76.31998291 106.74998169 76.31998291 106.3203125 77.66015625 C106.08586426 78.38855713 105.85141602 79.11695801 105.60986328 79.86743164 C104.93971037 82.21082061 104.47799971 84.61000145 104 87 C97.4 87 90.8 87 84 87 C83.45996338 85.19289551 82.91992676 83.38579102 82.36352539 81.52392578 C80.58089462 75.5603426 78.79657161 69.59726784 77.01108646 63.63453865 C75.92837358 60.01853093 74.84634591 56.4023211 73.76586914 52.78564453 C72.72356678 49.2968401 71.67948424 45.80857306 70.63415337 42.3206749 C70.23520598 40.98838244 69.83690574 39.65589602 69.43925667 38.32321548 C68.88316278 36.45992263 68.32457563 34.59737442 67.76586914 32.73486328 C67.28954796 31.14268478 67.28954796 31.14268478 66.80360413 29.51834106 C66.08373753 27.03902198 66.08373753 27.03902198 65 25 C64.8209613 25.59975647 64.64192261 26.19951294 64.4574585 26.81744385 C62.57760006 33.1133548 60.69506319 39.40846056 58.81103516 45.703125 C58.11016566 48.04602238 57.40995769 50.38911778 56.71044922 52.73242188 C55.69937221 56.11902504 54.68584307 59.50488646 53.671875 62.890625 C53.36441345 63.92237854 53.0569519 64.95413208 52.74017334 66.01715088 C50.62765961 73.05957246 48.35230787 80.03389909 46 87 C39.73 87 33.46 87 27 87 C20.11339106 65.9860745 13.37284472 44.93734317 6.92285156 23.78491211 C6.44729521 22.22639071 5.97171032 20.66787802 5.49609375 19.109375 C5.27370026 18.37932755 5.05130676 17.64928009 4.82217407 16.89710999 C3.65574603 13.08350646 2.44623036 9.29051154 1.16015625 5.515625 C0 2 0 2 0 0 Z " fill="#632BD5" transform="translate(589,475)"/>
<path d="M0 0 C5.61 0 11.22 0 17 0 C17.01458252 2.35535889 17.02916504 4.71071777 17.04418945 7.13745117 C17.09477757 14.96461444 17.16141362 22.79158379 17.23571491 30.61855602 C17.28023118 35.35888622 17.31952734 40.09913417 17.34643555 44.83959961 C17.37265713 49.42391805 17.41318913 54.00791672 17.46318626 58.59203529 C17.4797286 60.3312612 17.4913208 62.07054225 17.49761391 63.80983543 C17.24838404 82.08337875 17.24838404 82.08337875 25 98 C25 98.66 25 99.32 25 100 C25.7734375 100.37125 25.7734375 100.37125 26.5625 100.75 C29.18406477 102.09439219 31.69567204 103.57807521 34.21875 105.09765625 C41.0413099 108.55382146 50.25442354 108.03400221 57.41015625 106.05859375 C66.09687763 102.62480921 70.85690029 98.28619942 75 90 C76.19814891 85.59015617 76.17170018 81.16773839 76.20532227 76.62963867 C76.21522186 75.79985504 76.22512146 74.97007141 76.23532104 74.11514282 C76.26681279 71.38278011 76.29164457 68.65040004 76.31640625 65.91796875 C76.33698643 64.01938942 76.35798318 62.12081457 76.37937927 60.22224426 C76.43449007 55.23283518 76.48394771 50.2433855 76.53222656 45.25390625 C76.58252197 40.15946859 76.63816602 35.06508966 76.69335938 29.97070312 C76.80080648 19.98051712 76.90178671 9.99028105 77 0 C82.94 0 88.88 0 95 0 C95.0680485 10.85809709 95.12297257 21.71605022 95.15543652 32.57431316 C95.17102544 37.61741307 95.19213855 42.66035825 95.22631836 47.70336914 C95.25915518 52.5793031 95.27690381 57.45508917 95.28463173 62.33112526 C95.29013191 64.18205909 95.30087111 66.03298576 95.31719017 67.88385582 C95.45649116 84.35310448 94.49416434 99.06408663 82.75 111.75 C71.0313373 122.64809988 57.37045392 125.92559478 41.7890625 125.3828125 C29.72050739 124.63177522 17.89995906 118.96514548 9.59765625 110.11328125 C2.55451568 100.79704886 -0.33101557 90.49522813 -0.22705078 79.01367188 C-0.22734283 78.15418945 -0.22763489 77.29470703 -0.22793579 76.40917969 C-0.2265532 73.59559694 -0.21104285 70.78228593 -0.1953125 67.96875 C-0.19157856 66.00720362 -0.18873339 64.04565536 -0.18673706 62.08410645 C-0.17913062 56.94176002 -0.15950797 51.79952803 -0.1373291 46.65722656 C-0.11680608 41.40170845 -0.10772157 36.1461717 -0.09765625 30.890625 C-0.0762591 20.59369184 -0.0411015 10.29687338 0 0 Z " fill="#632CD4" transform="translate(730,439)"/>
<path d="M0 0 C16.35147333 -0.07027297 32.7028972 -0.12307734 49.05448532 -0.15543652 C56.64786598 -0.17086492 64.24115247 -0.19187678 71.83447266 -0.22631836 C78.45756671 -0.25634473 85.08059252 -0.27560422 91.70375276 -0.28226548 C95.20637356 -0.28615549 98.70879923 -0.29521198 102.21135712 -0.31719017 C106.13410428 -0.34160231 110.05666553 -0.34196156 113.97949219 -0.34057617 C115.12389267 -0.351362 116.26829315 -0.36214783 117.44737244 -0.3732605 C128.7871329 -0.33016275 140.05457453 1.55800738 149 9 C156.51227235 17.48490046 161.10488622 26.11169697 161.14044189 37.55194092 C161.14615204 38.65647614 161.15186218 39.76101135 161.15774536 40.89901733 C161.15942215 42.70228989 161.15942215 42.70228989 161.16113281 44.54199219 C161.16609772 45.815737 161.17106262 47.08948181 161.17617798 48.40182495 C161.18926322 51.88962474 161.19573941 55.37740531 161.20018864 58.86522579 C161.20312581 61.0474746 161.20723183 63.22971823 161.21169281 65.41196442 C161.22535792 72.24901579 161.23502923 79.08605523 161.2388947 85.92311931 C161.2433723 93.79818533 161.2609104 101.67307751 161.2898953 109.5480907 C161.31155808 115.64679908 161.32160144 121.74545872 161.32293582 127.84420514 C161.32398062 131.48133621 161.32981868 135.11830364 161.34775543 138.75539398 C161.36739789 142.81717872 161.36292891 146.87860257 161.35644531 150.94042969 C161.3656601 152.13451447 161.37487488 153.32859924 161.3843689 154.55886841 C161.32570722 166.31210044 158.2528688 175.31180489 150.1484375 183.98046875 C144.9745039 188.81428321 139.12951252 192.66289694 131.9375 193.25 C131.298125 193.1675 130.65875 193.085 130 193 C130 192.67 130 192.34 130 192 C129.40401064 191.99668985 128.80802128 191.99337971 128.19397163 191.98996925 C113.70591793 191.90882121 99.21796422 191.8167559 84.73005867 191.71247292 C77.72387001 191.66230734 70.71769329 191.615865 63.71142578 191.578125 C56.9551559 191.54172126 50.19903004 191.49502501 43.44286728 191.44193649 C40.85999671 191.42334543 38.27709859 191.40825508 35.69418716 191.39665604 C32.08781932 191.37987408 28.48174846 191.35085873 24.87548828 191.31884766 C23.25924561 191.31560738 23.25924561 191.31560738 21.61035156 191.31230164 C20.63156036 191.30113815 19.65276917 191.28997467 18.64431763 191.2784729 C17.79073732 191.27294214 16.93715702 191.26741138 16.05771065 191.26171303 C14 191 14 191 12 189 C46.65 189 81.3 189 117 189 C117 188.34 117 187.68 117 187 C116.01 186.67 115.02 186.34 114 186 C115.65 185.67 117.3 185.34 119 185 C119 183.68 119 182.36 119 181 C119.66 180.67 120.32 180.34 121 180 C80.74 180 40.48 180 -1 180 C-1 179.67 -1 179.34 -1 179 C-0.36500139 178.99853344 0.26999722 178.99706688 0.9242382 178.99555588 C16.40824328 178.9584294 31.89198757 178.89933777 47.37580681 178.81609726 C54.86382255 178.77636612 62.35173411 178.74394369 69.83984375 178.72900391 C76.37001415 178.7159565 82.89995473 178.68891366 89.42999566 178.64538693 C92.88446767 178.62284096 96.33865696 178.60708515 99.79320908 178.60811615 C103.65908668 178.60900674 107.52439093 178.57863724 111.39013672 178.54589844 C113.08947105 178.55344398 113.08947105 178.55344398 114.82313538 178.56114197 C123.17656203 178.45206837 130.50620408 176.77556634 137.375 171.8125 C144.01771902 164.69530105 144.58259228 157.03615008 144.50170898 147.64648438 C144.50711197 146.44043045 144.51251495 145.23437653 144.51808167 143.99177551 C144.52839157 140.70851511 144.52093029 137.42591866 144.50437045 134.1427021 C144.49042982 130.69160768 144.49699022 127.2405412 144.50050354 123.78942871 C144.5031986 117.99608928 144.48979109 112.20295788 144.46655273 106.40966797 C144.43994731 99.73114128 144.43819847 93.05296215 144.4499411 86.37440062 C144.46075566 79.92495539 144.45450309 73.47563472 144.44038582 67.02619934 C144.43465778 64.29276044 144.43468341 61.55941365 144.43945122 58.82597351 C144.4423716 55.00161003 144.42581551 51.17780803 144.40405273 47.35351562 C144.40855438 46.2311702 144.41305603 45.10882477 144.41769409 43.95246887 C144.34522596 36.26174738 143.24891967 29.89236097 139.375 23.1875 C132.21725068 16.59483615 124.07748142 16.43538648 114.76928711 16.54589844 C113.47074799 16.54531433 112.17220886 16.54473022 110.83432007 16.54412842 C107.29961574 16.54298805 103.76546237 16.56638594 100.23088527 16.59442425 C96.52737065 16.61955213 92.82384123 16.62178882 89.12025452 16.62652588 C82.11869665 16.63892242 75.11739076 16.67169854 68.11594349 16.71192384 C60.14010602 16.75674551 52.16425606 16.77865462 44.18832386 16.79870558 C27.79206877 16.84043453 11.39606662 16.91072127 -5 17 C-2.4441433 14.4441433 -1.51293247 14.74618115 2.03500366 14.73498535 C3.10056992 14.72671219 4.16613617 14.71843903 5.26399231 14.70991516 C7.0250959 14.71138802 7.0250959 14.71138802 8.82177734 14.71289062 C10.05434769 14.70605759 11.28691803 14.69922455 12.55683899 14.69218445 C15.24100525 14.67856442 17.92490988 14.66854165 20.60908127 14.66447449 C24.85303969 14.65777044 29.0968383 14.63602666 33.34072876 14.61193848 C42.35211509 14.56292321 51.3635353 14.53064199 60.375 14.5 C70.09598661 14.46692697 79.81691089 14.43099583 89.53780138 14.37586927 C93.75662165 14.35251579 97.97533127 14.33877833 102.19420981 14.33237457 C105.43598983 14.32504227 108.67769743 14.30502973 111.91943359 14.28710938 C113.67446449 14.28858223 113.67446449 14.28858223 115.46495056 14.29008484 C116.53615646 14.28181168 117.60736237 14.27353851 118.71102905 14.26501465 C119.64128592 14.26208153 120.57154278 14.25914841 121.52998924 14.2561264 C124.12402588 13.98713921 125.76835117 13.31462407 128 12 C127.175 11.5875 126.35 11.175 125.5 10.75 C124.675 10.1725 123.85 9.595 123 9 C123 7.68 123 6.36 123 5 C125.475 4.01 125.475 4.01 128 3 C125.49595517 1.74797759 123.77920834 1.86128674 120.9760437 1.84178162 C119.91311096 1.8319928 118.85017822 1.82220398 117.7550354 1.81211853 C116.5840329 1.80636307 115.4130304 1.8006076 114.20654297 1.79467773 C112.97730103 1.78477814 111.74805908 1.77487854 110.48156738 1.76467896 C107.10576555 1.73845605 103.72998782 1.71660855 100.35414648 1.69667697 C96.82804137 1.67483336 93.30197959 1.64743674 89.77590942 1.62062073 C83.09654829 1.57067182 76.41716313 1.52574117 69.73775494 1.48259836 C62.13443894 1.43324475 54.53116641 1.37831968 46.92789245 1.32291877 C31.28530179 1.209065 15.64267118 1.10223337 0 1 C0 0.67 0 0.34 0 0 Z " fill="#622AD3" transform="translate(145,406)"/>
<path d="M0 0 C2.69990662 1.79993774 4.5418865 3.083773 6 6 C6.11624665 7.79075855 6.16963378 9.58574976 6.19287109 11.38012695 C6.20893402 12.50502029 6.22499695 13.62991364 6.24154663 14.78889465 C6.28591476 19.93566091 6.32750102 25.08233801 6.35009766 30.22924805 C6.36343211 32.94638779 6.39127382 35.6627756 6.43212891 38.37963867 C6.49094168 42.2908323 6.50875963 46.20166052 6.5234375 50.11328125 C6.54610687 51.32800613 6.56877625 52.54273102 6.59213257 53.79426575 C6.56856134 63.17590804 6.56856134 63.17590804 3.65478516 66.26635742 C0.35988506 68.41801142 -1.14186756 68.80377759 -5 68 C-8.25091 65.40245475 -9.8167725 63.8974145 -10.65942383 59.77026367 C-10.67513428 58.58150635 -10.69084473 57.39274902 -10.70703125 56.16796875 C-10.75053711 54.22954102 -10.75053711 54.22954102 -10.79492188 52.25195312 C-10.8013102 50.89713781 -10.80716288 49.54231987 -10.8125 48.1875 C-10.83565748 46.8131116 -10.86102545 45.43875856 -10.88867188 44.06445312 C-10.94753342 40.70934485 -10.98382337 37.35554126 -11 34 C-14.00831496 36.98330019 -17.01310394 39.97009741 -20.01489258 42.95996094 C-21.03317292 43.97326152 -22.05235474 44.98565712 -23.07250977 45.99707031 C-29.89446573 52.71995654 -29.89446573 52.71995654 -36.3203125 59.81640625 C-41.34372167 65.68823687 -46.91151881 71.0600636 -52.38110352 76.51147461 C-54.32881803 78.45377265 -56.2710593 80.4014314 -58.21289062 82.34960938 C-59.45019983 83.58625875 -60.68781868 84.82259842 -61.92578125 86.05859375 C-62.79605705 86.9319059 -62.79605705 86.9319059 -63.68391418 87.82286072 C-68.78532831 92.89437637 -68.78532831 92.89437637 -72.875 93.25 C-76 93 -76 93 -78.3125 92 C-80.3801877 89.54940717 -81.11358263 87.34466583 -81.3425293 84.14770508 C-80.91276578 81.45302961 -80.05166599 80.44636589 -78.20703125 78.44921875 C-77.56805908 77.75594482 -76.92908691 77.0626709 -76.27075195 76.34838867 C-71.24614665 71.15199275 -66.1154539 66.06698627 -60.97021484 60.99072266 C-55.69917519 55.78398461 -50.52342435 50.56827295 -45.70751953 44.93017578 C-42.38389106 41.17315452 -38.76380174 37.70176702 -35.1875 34.1875 C-33.67867008 32.70417862 -32.17205673 31.21859824 -30.66796875 29.73046875 C-30.01078857 29.08489014 -29.3536084 28.43931152 -28.67651367 27.77416992 C-26.81294094 25.901734 -26.81294094 25.901734 -25 23 C-25.77077881 23.12117188 -26.54155762 23.24234375 -27.33569336 23.3671875 C-30.86857161 23.91849568 -34.40298039 24.45931896 -37.9375 25 C-39.14986328 25.19078125 -40.36222656 25.3815625 -41.61132812 25.578125 C-48.13491418 26.56815432 -54.40047856 27.44314968 -61 27 C-64.35352755 24.30081929 -64.90377072 22.68563364 -65.5 18.4375 C-65 15 -65 15 -63.4375 12.6875 C-57.97769987 8.90763837 -51.0328475 8.45372593 -44.59375 7.59765625 C-42.77991047 7.34466934 -40.96610953 7.09140571 -39.15234375 6.83789062 C-36.3222741 6.44808673 -33.49185 6.06140189 -30.66064453 5.67993164 C-27.90790709 5.30699091 -25.15708991 4.92181086 -22.40625 4.53515625 C-21.14814514 4.37092918 -21.14814514 4.37092918 -19.86462402 4.2033844 C-13.15747319 3.24958068 -6.63493504 -1.00966403 0 0 Z " fill="#632BD5" transform="translate(250,456)"/>
<path d="M0 0 C6.93584709 4.11779976 11.01265202 9.57888731 13.7421875 17.13671875 C16.37292341 27.73355948 14.1877457 37.44669014 8.8125 46.75 C2.1595581 52.87770964 -4.8570882 56.26132404 -13.8671875 56.15625 C-21.21196498 55.56015212 -28.055864 52.64181401 -33.15625 47.25390625 C-38.83400977 40.33761555 -41.22324416 32.44363816 -40.9140625 23.51953125 C-39.88263406 15.94426236 -37.09743931 9.22085116 -31.5625 3.9375 C-22.30699392 -2.72283477 -10.71505113 -4.98184542 0 0 Z " fill="#FAF9FA" transform="translate(551.5625,491.0625)"/>
<path d="M0 0 C6.3349682 3.85066695 11.84146511 8.05388209 14.5625 15.16015625 C16.7955029 25.08306291 16.15717048 35.96003075 11.1875 44.9375 C7.17499007 50.76681224 2.90679869 54.86103187 -4.17578125 56.4765625 C-14.85464224 58.34338561 -22.50815817 55.93347195 -31.43481445 49.82788086 C-33.60070463 46.85597095 -33.34085513 43.6344701 -33.38671875 40.0859375 C-33.4014473 39.31246979 -33.41617584 38.53900208 -33.43135071 37.74209595 C-33.45530155 36.10306668 -33.47072281 34.46389391 -33.47827148 32.82470703 C-33.49976035 30.34020783 -33.57983265 27.86203253 -33.66210938 25.37890625 C-33.88653443 12.05407882 -33.88653443 12.05407882 -29 6.44921875 C-20.43851996 -1.44886594 -11.3546324 -3.16440575 0 0 Z " fill="#FAF9FA" transform="translate(889.8125,490.0625)"/>
<path d="M0 0 C0 44.22 0 88.44 0 134 C-5.28 134 -10.56 134 -16 134 C-16 92.09 -16 50.18 -16 7 C-3 0 -3 0 0 0 Z " fill="#632CD5" transform="translate(480,428)"/>
<path d="M0 0 C16.35147333 -0.07027297 32.7028972 -0.12307734 49.05448532 -0.15543652 C56.64786598 -0.17086492 64.24115247 -0.19187678 71.83447266 -0.22631836 C78.45756671 -0.25634473 85.08059252 -0.27560422 91.70375276 -0.28226548 C95.20637356 -0.28615549 98.70879923 -0.29521198 102.21135712 -0.31719017 C106.13410428 -0.34160231 110.05666553 -0.34196156 113.97949219 -0.34057617 C115.12389267 -0.351362 116.26829315 -0.36214783 117.44737244 -0.3732605 C128.77769617 -0.33019861 140.06759025 1.55132945 149 9 C153.17964619 13.77573667 157.12136697 18.86381277 159 25 C158.67 25.99 158.34 26.98 158 28 C157.01 27.01 157.01 27.01 156 26 C153.41645782 25.83312552 153.41645782 25.83312552 151 26 C151 26.66 151 27.32 151 28 C149.68 28 148.36 28 147 28 C147 69.91 147 111.82 147 155 C146.67 155 146.34 155 146 155 C145.33833668 136.39451192 144.91801171 117.80046455 144.7890625 99.18359375 C144.77476683 97.3070974 144.76034167 95.43060204 144.74578857 93.55410767 C144.68767051 85.88758757 144.63148931 78.2211193 144.59863281 70.55444336 C144.577649 65.77535852 144.54239581 60.99655909 144.49787521 56.21763802 C144.48383577 54.4248596 144.47502044 52.6320315 144.47182083 50.83920097 C144.48437687 36.4776156 144.48437687 36.4776156 139.375 23.1875 C132.21725068 16.59483615 124.07748142 16.43538648 114.76928711 16.54589844 C113.47074799 16.54531433 112.17220886 16.54473022 110.83432007 16.54412842 C107.29961574 16.54298805 103.76546237 16.56638594 100.23088527 16.59442425 C96.52737065 16.61955213 92.82384123 16.62178882 89.12025452 16.62652588 C82.11869665 16.63892242 75.11739076 16.67169854 68.11594349 16.71192384 C60.14010602 16.75674551 52.16425606 16.77865462 44.18832386 16.79870558 C27.79206877 16.84043453 11.39606662 16.91072127 -5 17 C-2.4441433 14.4441433 -1.51293247 14.74618115 2.03500366 14.73498535 C3.10056992 14.72671219 4.16613617 14.71843903 5.26399231 14.70991516 C7.0250959 14.71138802 7.0250959 14.71138802 8.82177734 14.71289062 C10.05434769 14.70605759 11.28691803 14.69922455 12.55683899 14.69218445 C15.24100525 14.67856442 17.92490988 14.66854165 20.60908127 14.66447449 C24.85303969 14.65777044 29.0968383 14.63602666 33.34072876 14.61193848 C42.35211509 14.56292321 51.3635353 14.53064199 60.375 14.5 C70.09598661 14.46692697 79.81691089 14.43099583 89.53780138 14.37586927 C93.75662165 14.35251579 97.97533127 14.33877833 102.19420981 14.33237457 C105.43598983 14.32504227 108.67769743 14.30502973 111.91943359 14.28710938 C113.67446449 14.28858223 113.67446449 14.28858223 115.46495056 14.29008484 C116.53615646 14.28181168 117.60736237 14.27353851 118.71102905 14.26501465 C119.64128592 14.26208153 120.57154278 14.25914841 121.52998924 14.2561264 C124.12402588 13.98713921 125.76835117 13.31462407 128 12 C127.175 11.5875 126.35 11.175 125.5 10.75 C124.675 10.1725 123.85 9.595 123 9 C123 7.68 123 6.36 123 5 C125.475 4.01 125.475 4.01 128 3 C125.49595517 1.74797759 123.77920834 1.86128674 120.9760437 1.84178162 C119.91311096 1.8319928 118.85017822 1.82220398 117.7550354 1.81211853 C116.5840329 1.80636307 115.4130304 1.8006076 114.20654297 1.79467773 C112.97730103 1.78477814 111.74805908 1.77487854 110.48156738 1.76467896 C107.10576555 1.73845605 103.72998782 1.71660855 100.35414648 1.69667697 C96.82804137 1.67483336 93.30197959 1.64743674 89.77590942 1.62062073 C83.09654829 1.57067182 76.41716313 1.52574117 69.73775494 1.48259836 C62.13443894 1.43324475 54.53116641 1.37831968 46.92789245 1.32291877 C31.28530179 1.209065 15.64267118 1.10223337 0 1 C0 0.67 0 0.34 0 0 Z " fill="#541EC4" transform="translate(145,406)"/>
<path d="M0 0 C0.66 0.33 1.32 0.66 2 1 C1.83766876 1.71334503 1.67533752 2.42669006 1.50808716 3.16165161 C1.00314498 5.98243106 0.87306203 8.55099175 0.87060547 11.41357422 C0.86745331 12.47172333 0.86430115 13.52987244 0.86105347 14.62008667 C0.8630777 15.75350494 0.86510193 16.88692322 0.8671875 18.0546875 C0.86575241 19.81705246 0.86575241 19.81705246 0.86428833 21.61502075 C0.86360845 24.09800266 0.86544935 26.58098636 0.86962891 29.06396484 C0.87497024 32.85388206 0.8696823 36.64368026 0.86328125 40.43359375 C0.86394225 42.84895859 0.86522387 45.26432336 0.8671875 47.6796875 C0.86516327 48.80905731 0.86313904 49.93842712 0.86105347 51.10202026 C0.86578171 52.69870041 0.86578171 52.69870041 0.87060547 54.32763672 C0.87140106 55.25631561 0.87219666 56.18499451 0.87301636 57.14181519 C0.95684585 60.10353441 0.95684585 60.10353441 1.49801636 63.41967773 C1.99718955 66.9799549 2.14029593 70.36451039 2.16113281 73.95751953 C2.16609772 74.61375305 2.17106262 75.26998657 2.17617798 75.94610596 C2.19064567 78.09168586 2.19757228 80.23719209 2.203125 82.3828125 C2.20595238 83.12036648 2.20877975 83.85792046 2.21169281 84.61782455 C2.22661566 88.51393739 2.23589116 92.41001379 2.24023438 96.30615234 C2.24573743 100.32215914 2.26982328 104.33783006 2.29820633 108.35373116 C2.31684188 111.45243308 2.32203859 114.55105375 2.32357025 117.64980698 C2.32659058 119.13055145 2.33459821 120.6112947 2.34775543 122.0919838 C2.36485091 124.16200704 2.36292884 126.23120394 2.35644531 128.30126953 C2.36009094 129.47706573 2.36373657 130.65286194 2.36749268 131.86428833 C1.96470003 135.30120471 0.98591339 137.20289787 -1 140 C-2.29188363 137.41623275 -2.10965792 135.59300936 -2.08901978 132.69924927 C-2.08342545 131.57478394 -2.07783112 130.4503186 -2.07206726 129.29177856 C-2.06069229 128.05225433 -2.04931732 126.8127301 -2.03759766 125.53564453 C-2.02959641 124.23479919 -2.02159515 122.93395386 -2.01335144 121.59368896 C-1.99112203 118.01922725 -1.96245432 114.44484344 -1.93239641 110.87044001 C-1.9017715 107.13271412 -1.87612361 103.39495355 -1.84970093 99.65719604 C-1.80447989 93.37738919 -1.75500262 87.09762624 -1.703125 80.81787109 C-1.6432061 73.55729263 -1.59040933 66.29668838 -1.54135668 59.03602898 C-1.49399504 52.05532332 -1.44116934 45.07466879 -1.38599777 38.09402084 C-1.36262964 35.12203855 -1.34125408 32.15005176 -1.32149124 29.17804337 C-1.29362537 25.02635261 -1.25781357 20.87476727 -1.22119141 16.72314453 C-1.2138649 15.48766876 -1.20653839 14.25219299 -1.19898987 12.97927856 C-1.1821389 11.28412109 -1.1821389 11.28412109 -1.16494751 9.55471802 C-1.15719614 8.57284075 -1.14944477 7.59096348 -1.14145851 6.57933235 C-1.01312178 4.23926051 -0.66361402 2.239865 0 0 Z " fill="#6830D0" transform="translate(113,432)"/>
<path d="M0 0 C5.61 0 11.22 0 17 0 C17 3.63 17 7.26 17 11 C16.67 11 16.34 11 16 11 C16 7.7 16 4.4 16 1 C11.38 1 6.76 1 2 1 C2.33 41.92 2.66 82.84 3 125 C1.515 125.495 1.515 125.495 0 126 C0 84.42 0 42.84 0 0 Z " fill="#5A2DBE" transform="translate(839,475)"/>
<path d="M0 0 C0.66 0.33 1.32 0.66 2 1 C1.83826325 1.71237414 1.67652651 2.42474829 1.50988865 3.15870953 C1.00164739 5.99082015 0.86152936 8.58593975 0.84178162 11.46064758 C0.8319928 12.54453262 0.82220398 13.62841766 0.81211853 14.74514771 C0.80636307 15.92406586 0.8006076 17.10298401 0.79467773 18.31762695 C0.78477814 19.56681412 0.77487854 20.81600128 0.76467896 22.1030426 C0.73853809 25.51998776 0.71665679 28.93691014 0.69667697 32.35389352 C0.6747685 35.92802678 0.64740365 39.50211819 0.62062073 43.07621765 C0.57075945 49.84047796 0.52579634 56.60476158 0.48259836 63.36906737 C0.43316979 71.07160367 0.37827255 78.77409797 0.32291877 86.47659361 C0.20919954 102.31769023 0.1023387 118.15882552 0 134 C-0.33 134 -0.66 134 -1 134 C-1.02335383 117.11919015 -1.04099141 100.23838533 -1.05181217 83.35756302 C-1.05696984 75.51961985 -1.06400249 67.68168672 -1.07543945 59.84375 C-1.08540243 53.01271265 -1.09185728 46.18168257 -1.09408849 39.35063815 C-1.09539285 35.73321302 -1.09846139 32.11580867 -1.10573006 28.4983902 C-1.11377594 24.46148249 -1.11399009 20.42461101 -1.11352539 16.38769531 C-1.11712067 15.18648041 -1.12071594 13.9852655 -1.12442017 12.74765015 C-1.12235817 11.09864212 -1.12235817 11.09864212 -1.12025452 9.4163208 C-1.12117631 8.46134327 -1.1220981 7.50636574 -1.12304783 6.52244949 C-1.00968863 4.1986144 -0.65911481 2.22363738 0 0 Z " fill="#6E31E7" transform="translate(113,432)"/>
<path d="M0 0 C0.99 0 1.98 0 3 0 C5.77816163 11.56438011 4.76341083 24.13455558 0 35 C-0.66 35.66 -1.32 36.32 -2 37 C-1.47731534 34.23723823 -0.89130413 31.6739124 0 29 C0.08358958 26.78910055 0.10731764 24.57573922 0.09765625 22.36328125 C0.09443359 21.06455078 0.09121094 19.76582031 0.08789062 18.42773438 C0.07953531 17.05598892 0.07107037 15.68424413 0.0625 14.3125 C0.05748335 12.92903805 0.05292073 11.54557437 0.04882812 10.16210938 C0.03702529 6.77469605 0.02056019 3.38736967 0 0 Z " fill="#5A27C6" transform="translate(919,504)"/>
<path d="M0 0 C7.26 0.33 14.52 0.66 22 1 C22 1.33 22 1.66 22 2 C20.39318359 2.07347656 20.39318359 2.07347656 18.75390625 2.1484375 C17.35674361 2.22345294 15.9596095 2.2990013 14.5625 2.375 C13.85544922 2.4059375 13.14839844 2.436875 12.41992188 2.46875 C10.60760812 2.57280629 8.80182012 2.77919892 7 3 C6.67 3.66 6.34 4.32 6 5 C4.68 5 3.36 5 2 5 C2 6.65 2 8.3 2 10 C-0.31 10.33 -2.62 10.66 -5 11 C-5.66 10.01 -6.32 9.02 -7 8 C-5.68 7.34 -4.36 6.68 -3 6 C-4.32 5.34 -5.64 4.68 -7 4 C-4.69 3.01 -2.38 2.02 0 1 C0 0.67 0 0.34 0 0 Z " fill="#6A2FE0" transform="translate(385,438)"/>
<path d="M0 0 C-3.65188082 1.07174763 -6.26432828 0.76411467 -10 0 C-9.67 0.66 -9.34 1.32 -9 2 C-12.63 2 -16.26 2 -20 2 C-20 2.66 -20 3.32 -20 4 C-23.65316671 2.75023244 -24.78065836 2.32901247 -27 -1 C-18.13497272 -5.05304526 -8.84476526 -3.28743487 0 0 Z " fill="#5A26C8" transform="translate(899,475)"/>
<path d="M0 0 C0.33 0.66 0.66 1.32 1 2 C-0.28965176 3.37562854 -1.62689293 4.70766393 -3 6 C-3.66 6 -4.32 6 -5 6 C-5.3403125 6.8971875 -5.3403125 6.8971875 -5.6875 7.8125 C-7 10 -7 10 -9.34375 11.21875 C-12.80233421 13.53803588 -13.94688743 15.99285551 -15.8125 19.6875 C-16.12380859 20.29400391 -16.43511719 20.90050781 -16.75585938 21.52539062 C-17.51608584 23.01075619 -18.25975462 24.50457634 -19 26 C-20 23 -20 23 -19.13671875 20.6875 C-9.56884192 2.94437531 -9.56884192 2.94437531 -1.6953125 0.1953125 C-0.85613281 0.09863281 -0.85613281 0.09863281 0 0 Z " fill="#632DD1" transform="translate(361,451)"/>
<path d="M0 0 C1.90318884 2.85478326 2.4619099 4.41941308 3.125 7.6875 C3.29257812 8.49574219 3.46015625 9.30398438 3.6328125 10.13671875 C3.75398437 10.75160156 3.87515625 11.36648438 4 12 C3.195625 12.12375 2.39125 12.2475 1.5625 12.375 C0.716875 12.58125 -0.12875 12.7875 -1 13 C-1.33 13.66 -1.66 14.32 -2 15 C-2 14.34 -2 13.68 -2 13 C-2.66 13 -3.32 13 -4 13 C-3.52511102 11.01980257 -3.04497141 9.04086365 -2.5625 7.0625 C-2.29566406 5.96035156 -2.02882813 4.85820312 -1.75390625 3.72265625 C-1 1 -1 1 0 0 Z " fill="#F2EBF7" transform="translate(654,499)"/>
<path d="M0 0 C0.66 0.33 1.32 0.66 2 1 C2.36263859 6.8022175 1.25684543 10.63999211 -1 16 C-2.90318884 13.14521674 -3.4619099 11.58058692 -4.125 8.3125 C-4.29257812 7.50425781 -4.46015625 6.69601562 -4.6328125 5.86328125 C-4.75398437 5.24839844 -4.87515625 4.63351562 -5 4 C-4.01 3.67 -3.02 3.34 -2 3 C-1.67 3.33 -1.34 3.66 -1 4 C-0.67 2.68 -0.34 1.36 0 0 Z " fill="#F7F4F8" transform="translate(627,522)"/>
<path d="M0 0 C5.61 0 11.22 0 17 0 C17 0.66 17 1.32 17 2 C11.35590541 3.88136486 4.73055582 3.52814822 -1 2 C-0.67 1.34 -0.34 0.68 0 0 Z " fill="#F0E9F6" transform="translate(531,544)"/>
<path d="M0 0 C-1.32 0.33 -2.64 0.66 -4 1 C-4.33 2.32 -4.66 3.64 -5 5 C-6.75 5.6875 -6.75 5.6875 -9 6 C-11.25 4.5625 -11.25 4.5625 -13 3 C-8.44573816 0.33409063 -5.26053037 -0.31563182 0 0 Z " fill="#5824C8" transform="translate(144,407)"/>
<path d="M0 0 C0 3 0 3 -1.37695312 4.7175293 C-2.00537109 5.33023682 -2.63378906 5.94294434 -3.28125 6.57421875 C-3.95800781 7.24130859 -4.63476562 7.90839844 -5.33203125 8.59570312 C-6.04746094 9.28599609 -6.76289063 9.97628906 -7.5 10.6875 C-8.57314453 11.7403418 -8.57314453 11.7403418 -9.66796875 12.81445312 C-11.43879577 14.54986361 -13.21623456 16.2779073 -15 18 C-15.33 16.68 -15.66 15.36 -16 14 C-15.29488281 13.62230469 -14.58976563 13.24460937 -13.86328125 12.85546875 C-10.54950123 10.70806696 -7.91467915 8.13434759 -5.1875 5.3125 C-4.68541016 4.80138672 -4.18332031 4.29027344 -3.66601562 3.76367188 C-2.43936491 2.51365638 -1.21902509 1.2574532 0 0 Z " fill="#4918B9" transform="translate(204,523)"/>
<path d="M0 0 C0.33 0 0.66 0 1 0 C1.25 3.3125 1.25 3.3125 1 7 C-1 8.6875 -1 8.6875 -3 10 C-3 11.32 -3 12.64 -3 14 C-3.66 14 -4.32 14 -5 14 C-5.33 14.66 -5.66 15.32 -6 16 C-5.53118166 10.37417987 -4.15551956 4.15551956 0 0 Z " fill="#5321C1" transform="translate(502,491)"/>
<path d="M0 0 C5.28 0 10.56 0 16 0 C15.01 1.485 15.01 1.485 14 3 C11.6171875 3.29296875 11.6171875 3.29296875 8.875 3.1875 C7.96492187 3.16042969 7.05484375 3.13335937 6.1171875 3.10546875 C5.41851563 3.07066406 4.71984375 3.03585937 4 3 C4 2.34 4 1.68 4 1 C2.68 0.67 1.36 0.34 0 0 Z " fill="#6B30DC" transform="translate(530,474)"/>
<path d="M0 0 C2.5654594 2.5654594 2.54046087 4.47686668 3 8 C3.66 8 4.32 8 5 8 C6.08318169 13.3212615 7.152874 18.63486869 8 24 C5.82857596 21.82857596 5.39700242 20.63267023 4.4921875 17.75390625 C4.22792969 16.91666016 3.96367188 16.07941406 3.69140625 15.21679688 C3.42199219 14.34087891 3.15257812 13.46496094 2.875 12.5625 C2.59785156 11.69044922 2.32070313 10.81839844 2.03515625 9.91992188 C0 3.39839901 0 3.39839901 0 0 Z " fill="#4719B4" transform="translate(602,515)"/>
<path d="M0 0 C0.66 0 1.32 0 2 0 C1.65544802 3.10096781 1.15182706 4.79937138 -0.75 7.3125 C-3.41238939 9.30929204 -4.74952319 9.36116409 -8 9 C-7.04270084 7.87411986 -6.08412105 6.7493285 -5.125 5.625 C-4.59132812 4.99851562 -4.05765625 4.37203125 -3.5078125 3.7265625 C-2.38567993 2.44163349 -1.20628025 1.20628025 0 0 Z " fill="#5922D1" transform="translate(194,512)"/>
<path d="M0 0 C5.61 0 11.22 0 17 0 C16.67 0.66 16.34 1.32 16 2 C9.07 1.505 9.07 1.505 2 1 C2 1.99 2 2.98 2 4 C2.66 4 3.32 4 4 4 C4 6.31 4 8.62 4 11 C0.87740563 7.87740563 0.85706658 4.28533288 0 0 Z " fill="#3C11A7" transform="translate(589,475)"/>
<path d="M0 0 C0.33 0.66 0.66 1.32 1 2 C6.94 2.33 12.88 2.66 19 3 C19 3.33 19 3.66 19 4 C16.35448944 4.19386492 13.70882217 4.38038267 11.0625 4.5625 C10.30775391 4.61857422 9.55300781 4.67464844 8.77539062 4.73242188 C6.85254042 4.86176157 4.92610452 4.93516912 3 5 C2.67 4.67 2.34 4.34 2 4 C-0.32817964 3.63239269 -2.6618385 3.29758419 -5 3 C-5 2.34 -5 1.68 -5 1 C-3.35 0.67 -1.7 0.34 0 0 Z " fill="#6B2EE3" transform="translate(387,546)"/>
<path d="M0 0 C0.99 0.495 0.99 0.495 2 1 C2 1.66 2 2.32 2 3 C2.66 3 3.32 3 4 3 C4.05402274 5.10388569 4.09280256 7.20816714 4.125 9.3125 C4.14820313 10.48425781 4.17140625 11.65601563 4.1953125 12.86328125 C4 16 4 16 2 19 C1.93941406 18.04738281 1.87882812 17.09476563 1.81640625 16.11328125 C1.73261719 14.85902344 1.64882813 13.60476563 1.5625 12.3125 C1.48128906 11.07113281 1.40007812 9.82976563 1.31640625 8.55078125 C1.05508683 5.61819663 0.65201621 2.86558383 0 0 Z " fill="#6733D0" transform="translate(495,506)"/>
<path d="M0 0 C1.54571278 2.31856917 2.79618552 4.50638429 4 7 C4.66 6.34 5.32 5.68 6 5 C6.66 5.66 7.32 6.32 8 7 C7.34 8.32 6.68 9.64 6 11 C6.99 12.32 7.98 13.64 9 15 C8.67 15.66 8.34 16.32 8 17 C3.57852707 11.94688807 0 6.81672599 0 0 Z " fill="#5021BB" transform="translate(112,571)"/>
<path d="M0 0 C0.66 0.99 1.32 1.98 2 3 C1.41734375 3.19335938 0.8346875 3.38671875 0.234375 3.5859375 C-2.91220408 5.57730398 -4.13829761 8.38776087 -5.75 11.625 C-6.06582031 12.23601562 -6.38164062 12.84703125 -6.70703125 13.4765625 C-7.48175518 14.97905739 -8.24229671 16.48885018 -9 18 C-10 15 -10 15 -8.92578125 12.44140625 C-8.12720703 11.01634766 -8.12720703 11.01634766 -7.3125 9.5625 C-6.79300781 8.61503906 -6.27351563 7.66757812 -5.73828125 6.69140625 C-4.05181869 4.08023164 -2.27876336 2.10003682 0 0 Z " fill="#4D1DB9" transform="translate(351,459)"/>
<path d="M0 0 C0.89130413 2.6739124 1.47731534 5.23723823 2 8 C1.01 7.67 0.02 7.34 -1 7 C-1.103125 8.0725 -1.20625 9.145 -1.3125 10.25 C-1.9927102 13.96023744 -2.6889903 15.19952712 -5 18 C-3.9007105 11.68878497 -2.41862058 5.93661416 0 0 Z " fill="#4E1EBA" transform="translate(702,479)"/>
<path d="M0 0 C4.62 0 9.24 0 14 0 C14 0.66 14 1.32 14 2 C12.22932584 2.16834933 10.45845388 2.33461909 8.6875 2.5 C7.70136719 2.5928125 6.71523438 2.685625 5.69921875 2.78125 C3 3 3 3 0 3 C0 2.01 0 1.02 0 0 Z " fill="#682DDF" transform="translate(591,476)"/>
<path d="M0 0 C0.91058531 3.07322544 1.08886184 5.80097361 1 9 C2.65 8.67 4.3 8.34 6 8 C5.67 9.32 5.34 10.64 5 12 C0.125 10.125 0.125 10.125 -1 9 C-1.1328125 7.1875 -1.1328125 7.1875 -1.125 5 C-1.12757813 4.278125 -1.13015625 3.55625 -1.1328125 2.8125 C-1 1 -1 1 0 0 Z " fill="#692CE4" transform="translate(172,536)"/>
<path d="M0 0 C1.65 0.33 3.3 0.66 5 1 C0 7.57142857 0 7.57142857 -5 9 C-5.33 8.01 -5.66 7.02 -6 6 C-4.02 5.34 -2.04 4.68 0 4 C0 2.68 0 1.36 0 0 Z " fill="#521DC6" transform="translate(809,547)"/>
<path d="M0 0 C2.51699845 2.51699845 3.10964078 4.57554146 4 8 C3.625 10.375 3.625 10.375 3 12 C0.58279247 10.10827237 0.01036031 9.04144125 -0.75 6 C-1 3 -1 3 0 0 Z " fill="#5823C7" transform="translate(667,489)"/>
<path d="M0 0 C0.99 0.33 1.98 0.66 3 1 C2.34 1 1.68 1 1 1 C1 1.99 1 2.98 1 4 C-0.0725 4.4125 -1.145 4.825 -2.25 5.25 C-5.52265074 6.63739149 -7.65517162 8.27999908 -10 11 C-9.63602389 8.16977199 -9.09235225 7.09216828 -7.0390625 5.04296875 C-6.24242187 4.43066406 -5.44578125 3.81835938 -4.625 3.1875 C-3.83351563 2.56230469 -3.04203125 1.93710937 -2.2265625 1.29296875 C-1.49179687 0.86628906 -0.75703125 0.43960937 0 0 Z " fill="#5022BD" transform="translate(868,475)"/>
<path d="M0 0 C2.69082872 0.17635452 5.32851446 0.61835921 8 1 C7.67 1.99 7.34 2.98 7 4 C4.69 4.33 2.38 4.66 0 5 C-0.5625 3.0625 -0.5625 3.0625 -1 1 C-0.67 0.67 -0.34 0.34 0 0 Z " fill="#5D26CF" transform="translate(275,594)"/>
<path d="M0 0 C3 0.375 3 0.375 4.875 1.875 C5.24625 2.37 5.6175 2.865 6 3.375 C4.68 3.045 3.36 2.715 2 2.375 C1.67 3.035 1.34 3.695 1 4.375 C-1.31 4.045 -3.62 3.715 -6 3.375 C-4.09456498 0.83441997 -3.22246552 0.40280819 0 0 Z " fill="#5420C4" transform="translate(247,455.625)"/>
<path d="M0 0 C2 2 2 2 2 5 C2.66 5 3.32 5 4 5 C5.125 11.625 5.125 11.625 4 15 C3.32779649 13.06441401 2.66241923 11.12645628 2 9.1875 C1.62875 8.10855469 1.2575 7.02960937 0.875 5.91796875 C0 3 0 3 0 0 Z " fill="#4D1EB4" transform="translate(669,545)"/>
<path d="M0 0 C0.66 0.33 1.32 0.66 2 1 C2.625 3.0625 2.625 3.0625 3 5 C2.34 5 1.68 5 1 5 C1 5.66 1 6.32 1 7 C0.34 7 -0.32 7 -1 7 C-1.33 8.65 -1.66 10.3 -2 12 C-3.15957207 8.52128379 -2.77456651 7.65780355 -1.5625 4.3125 C-1.13130859 3.10013672 -1.13130859 3.10013672 -0.69140625 1.86328125 C-0.46324219 1.24839844 -0.23507812 0.63351562 0 0 Z " fill="#5220C3" transform="translate(692,511)"/>
<path d="M0 0 C1.98 0.66 3.96 1.32 6 2 C6.75241109 5.65456815 7.40049704 9.31733897 8 13 C6.44258299 10.66387449 4.92717955 8.31654047 3.4375 5.9375 C3.00308594 5.24527344 2.56867188 4.55304688 2.12109375 3.83984375 C1 2 1 2 0 0 Z " fill="#4B1ABC" transform="translate(282,426)"/>
<path d="M0 0 C1.11375 0.598125 2.2275 1.19625 3.375 1.8125 C4.00148438 2.14894531 4.62796875 2.48539063 5.2734375 2.83203125 C7 4 7 4 9 7 C6.525 6.01 6.525 6.01 4 5 C4 5.66 4 6.32 4 7 C3.01 6.67 2.02 6.34 1 6 C1.33 5.01 1.66 4.02 2 3 C1.34 2.67 0.68 2.34 0 2 C0 1.34 0 0.68 0 0 Z " fill="#5424C0" transform="translate(367,536)"/>
<path d="M0 0 C1.15957207 3.47871621 0.77456651 4.34219645 -0.4375 7.6875 C-0.86869141 8.89986328 -0.86869141 8.89986328 -1.30859375 10.13671875 C-1.53675781 10.75160156 -1.76492188 11.36648438 -2 12 C-4.13181214 8.25712373 -3.95685425 6.21015871 -3 2 C-2.34 2 -1.68 2 -1 2 C-0.67 1.34 -0.34 0.68 0 0 Z " fill="#4D1ABE" transform="translate(704,520)"/>
<path d="M0 0 C0.33 0 0.66 0 1 0 C1 1.98 1 3.96 1 6 C1.66 6 2.32 6 3 6 C3.33 5.01 3.66 4.02 4 3 C3.67 5.64 3.34 8.28 3 11 C2.34 11 1.68 11 1 11 C-0.17571451 7.32589215 -0.07366746 3.83070817 0 0 Z " fill="#6A2BE4" transform="translate(916,525)"/>
<path d="M0 0 C0.66 0 1.32 0 2 0 C2 2.64 2 5.28 2 8 C0.68 8 -0.64 8 -2 8 C-1.34 5.36 -0.68 2.72 0 0 Z " fill="#ECE3F4" transform="translate(703,526)"/>
<path d="M0 0 C0.99 0.33 1.98 0.66 3 1 C1.79618552 3.49361571 0.54571278 5.68143083 -1 8 C-1.66 7.67 -2.32 7.34 -3 7 C-1.125 1.125 -1.125 1.125 0 0 Z " fill="#6B31DB" transform="translate(651,497)"/>
<path d="M0 0 C1.88343932 3.76687864 2.22057835 5.02958963 2 9 C1.34 8.01 0.68 7.02 0 6 C-0.33 6.99 -0.66 7.98 -1 9 C-1.66 9 -2.32 9 -3 9 C-2.01 6.03 -1.02 3.06 0 0 Z " fill="#5525BD" transform="translate(114,427)"/>
<path d="M0 0 C0.33 0.66 0.66 1.32 1 2 C1.66 2 2.32 2 3 2 C3.76411467 5.73567172 4.07174763 8.34811918 3 12 C2.49440092 10.56445975 1.9957251 9.1264798 1.5 7.6875 C1.2215625 6.88699219 0.943125 6.08648438 0.65625 5.26171875 C0 3 0 3 0 0 Z " fill="#4F1EBA" transform="translate(665,532)"/>
<path d="M0 0 C0.66 0.99 1.32 1.98 2 3 C1.67 3.66 1.34 4.32 1 5 C-0.65 5 -2.3 5 -4 5 C-2.68 3.35 -1.36 1.7 0 0 Z " fill="#541EC6" transform="translate(190,516)"/>
</svg>
